<svg width="100" height="100" viewBox="0 0 100 100" fill="none" xmlns="http://www.w3.org/2000/svg">
<path d="M48.4664 94.7786C48.0107 94.5422 47.6161 94.2037 47.3132 93.79L46.132 91.4277L46.0089 91.9197C41.8467 85.8989 38.2509 80.7744 35.1468 76.3507C29.0254 67.6271 24.8164 61.6288 21.9471 56.8564C19.7252 53.1609 18.3445 50.259 17.5125 47.4493C16.6829 44.6473 16.3848 41.8885 16.3848 38.4615C16.3848 19.8946 31.4332 4.84616 50.0001 4.84616C68.5671 4.84616 83.6155 19.8946 83.6155 38.4615C83.6155 41.8885 83.3174 44.6468 82.4878 47.4479C81.6559 50.2568 80.2751 53.1574 78.0533 56.8514C75.1864 61.6179 70.9823 67.6076 64.8697 76.3164C61.4541 81.1827 57.4427 86.8979 52.7356 93.7231C52.4298 94.1632 52.0222 94.523 51.5475 94.772C51.0724 95.0211 50.5442 95.1518 50.0078 95.153C49.4713 95.1542 48.9425 95.0257 48.4664 94.7786Z" fill="#6889F6" stroke="#3A5FD9" stroke-width="2"/>
<g clip-path="url(#clip0_128_34)">
<path d="M63.5352 27.5375H59.6894C59.6894 22.2302 55.3821 17.9229 50.0748 17.9229C44.7676 17.9229 40.4602 22.2302 40.4602 27.5375H36.6144C34.4992 27.5375 32.7878 29.2681 32.7878 31.3833L32.7686 54.4583C32.7686 56.5735 34.4992 58.3042 36.6144 58.3042H63.5352C65.6504 58.3042 67.3811 56.5735 67.3811 54.4583V31.3833C67.3811 29.2681 65.6504 27.5375 63.5352 27.5375ZM50.0748 21.7687C53.2668 21.7687 55.8436 24.3455 55.8436 27.5375H44.3061C44.3061 24.3455 46.8828 21.7687 50.0748 21.7687ZM50.0748 40.9979C44.7676 40.9979 40.4602 36.6906 40.4602 31.3833H44.3061C44.3061 34.5754 46.8828 37.1521 50.0748 37.1521C53.2668 37.1521 55.8436 34.5754 55.8436 31.3833H59.6894C59.6894 36.6906 55.3821 40.9979 50.0748 40.9979Z" fill="white"/>
</g>
<defs>
<clipPath id="clip0_128_34">
<rect width="46.15" height="46.15" fill="white" transform="translate(27 16)"/>
</clipPath>
</defs>
</svg>
