<svg width="100" height="100" viewBox="0 0 100 100" fill="none" xmlns="http://www.w3.org/2000/svg">
<path d="M48.4664 94.7786C48.0107 94.5422 47.6161 94.2037 47.3132 93.79L46.132 91.4277L46.0089 91.9197C41.8467 85.8989 38.2509 80.7744 35.1468 76.3507C29.0254 67.6271 24.8164 61.6288 21.9471 56.8564C19.7252 53.1609 18.3445 50.259 17.5125 47.4493C16.6829 44.6473 16.3848 41.8885 16.3848 38.4615C16.3848 19.8946 31.4332 4.84616 50.0001 4.84616C68.5671 4.84616 83.6155 19.8946 83.6155 38.4615C83.6155 41.8885 83.3174 44.6468 82.4878 47.4479C81.6559 50.2568 80.2751 53.1574 78.0533 56.8514C75.1864 61.6179 70.9823 67.6076 64.8697 76.3164C61.4541 81.1827 57.4427 86.8979 52.7356 93.7231C52.4298 94.1632 52.0222 94.523 51.5475 94.772C51.0724 95.0211 50.5442 95.1518 50.0078 95.153C49.4713 95.1542 48.9425 95.0257 48.4664 94.7786Z" fill="#7B909C" stroke="#647178" stroke-width="2"/>
<g clip-path="url(#clip0_127_12)">
<path d="M36.538 44.5769V52.2692L49.9995 59.6154L63.4611 52.2692V44.5769L49.9995 51.9231L36.538 44.5769ZM49.9995 25L28.8457 36.5385L49.9995 48.0769L67.3072 38.6346V51.9231H71.1534V36.5385L49.9995 25Z" fill="#FEFEFE"/>
</g>
<defs>
<clipPath id="clip0_127_12">
<rect width="46.1538" height="46.1538" fill="white" transform="translate(26.9229 19.2308)"/>
</clipPath>
</defs>
</svg>
