<svg width="100" height="100" viewBox="0 0 100 100" fill="none" xmlns="http://www.w3.org/2000/svg">
<path d="M48.4664 94.7787C48.0107 94.5422 47.6161 94.2037 47.3132 93.79L46.132 91.4277L46.0089 91.9197C41.8467 85.8989 38.2509 80.7745 35.1468 76.3508C29.0254 67.6272 24.8164 61.6288 21.9471 56.8564C19.7252 53.161 18.3445 50.2591 17.5125 47.4494C16.6829 44.6473 16.3848 41.8885 16.3848 38.4616C16.3848 19.8946 31.4332 4.84619 50.0001 4.84619C68.5671 4.84619 83.6155 19.8946 83.6155 38.4616C83.6155 41.8885 83.3174 44.6468 82.4878 47.448C81.6559 50.2568 80.2751 53.1574 78.0533 56.8514C75.1864 61.6179 70.9823 67.6076 64.8697 76.3164C61.4541 81.1827 57.4427 86.8979 52.7356 93.7231C52.4298 94.1633 52.0222 94.5231 51.5475 94.772C51.0724 95.0211 50.5442 95.1519 50.0078 95.153C49.4713 95.1542 48.9425 95.0258 48.4664 94.7787Z" fill="#E66060" stroke="#B83E3E" stroke-width="2"/>
<g clip-path="url(#clip0_129_44)">
<path d="M63.5352 22.7687H36.6144C34.4992 22.7687 32.7878 24.4994 32.7878 26.6146L32.7686 53.5354C32.7686 55.6506 34.4992 57.3812 36.6144 57.3812H63.5352C65.6504 57.3812 67.3811 55.6506 67.3811 53.5354V26.6146C67.3811 24.4994 65.6504 22.7687 63.5352 22.7687ZM61.6123 43.9208H53.9206V51.6125H46.229V43.9208H38.5373V36.2292H46.229V28.5375H53.9206V36.2292H61.6123V43.9208Z" fill="white"/>
</g>
<defs>
<clipPath id="clip0_129_44">
<rect width="46.15" height="46.15" fill="white" transform="translate(27 17)"/>
</clipPath>
</defs>
</svg>
