<svg width="65" height="64" viewBox="0 0 65 64" fill="none" xmlns="http://www.w3.org/2000/svg">
<path d="M32.3716 42C41.2081 42 48.3716 34.8366 48.3716 26C48.3716 17.1634 41.2081 10 32.3716 10C23.535 10 16.3716 17.1634 16.3716 26C16.3716 34.8366 23.535 42 32.3716 42Z" fill="white"/>
<path fill-rule="evenodd" clip-rule="evenodd" d="M44.6865 41.8615C42.2586 44.2566 39.822 46.6603 38.214 49.6384L34.3284 56.8347C33.4895 58.3884 31.2537 58.3884 30.4148 56.8347L26.5292 49.6384C24.9212 46.6603 22.4846 44.2566 20.0567 41.8615C19.3468 41.1612 18.6377 40.4616 17.9502 39.7487C14.4954 36.1656 12.3716 31.2979 12.3716 25.9358C12.3716 14.9256 21.3259 6 32.3716 6C43.4173 6 52.3716 14.9256 52.3716 25.9358C52.3716 31.2979 50.2478 36.1656 46.793 39.7487C46.1055 40.4616 45.3964 41.1612 44.6865 41.8615ZM32.3716 39.0643C39.6456 39.0643 45.5423 33.1865 45.5423 25.9358C45.5423 18.6852 39.6456 12.8074 32.3716 12.8074C25.0976 12.8074 19.2009 18.6852 19.2009 25.9358C19.2009 33.1865 25.0976 39.0643 32.3716 39.0643Z" fill="#1080e8"/>
</svg>
