<svg width="100" height="100" viewBox="0 0 100 100" fill="none" xmlns="http://www.w3.org/2000/svg">
<path d="M48.4664 94.7786C48.0107 94.5421 47.6161 94.2037 47.3132 93.79L46.132 91.4276L46.0089 91.9197C41.8467 85.8989 38.2509 80.7744 35.1468 76.3507C29.0254 67.6271 24.8164 61.6288 21.9471 56.8563C19.7252 53.1609 18.3445 50.259 17.5125 47.4493C16.6829 44.6473 16.3848 41.8885 16.3848 38.4615C16.3848 19.8946 31.4332 4.84613 50.0001 4.84613C68.5671 4.84613 83.6155 19.8946 83.6155 38.4615C83.6155 41.8885 83.3174 44.6468 82.4878 47.4479C81.6559 50.2567 80.2751 53.1574 78.0533 56.8514C75.1864 61.6178 70.9823 67.6076 64.8697 76.3164C61.4541 81.1826 57.4427 86.8979 52.7356 93.7231C52.4298 94.1632 52.0222 94.523 51.5475 94.7719C51.0724 95.0211 50.5442 95.1518 50.0078 95.153C49.4713 95.1541 48.9425 95.0257 48.4664 94.7786Z" fill="#7B909C" stroke="#647178" stroke-width="2"/>
<g clip-path="url(#clip0_130_61)">
<path d="M50 21C41.16 21 34 22 34 29V48C34 51.86 37.14 55 41 55L38 58V59H62V58L59 55C62.86 55 66 51.86 66 48V29C66 22 58.84 21 50 21ZM41 51C39.34 51 38 49.66 38 48C38 46.34 39.34 45 41 45C42.66 45 44 46.34 44 48C44 49.66 42.66 51 41 51ZM48 39H38V29H48V39ZM59 51C57.34 51 56 49.66 56 48C56 46.34 57.34 45 59 45C60.66 45 62 46.34 62 48C62 49.66 60.66 51 59 51ZM62 39H52V29H62V39Z" fill="white"/>
</g>
<defs>
<clipPath id="clip0_130_61">
<rect width="48" height="48" fill="white" transform="translate(26 17)"/>
</clipPath>
</defs>
</svg>
