<svg width="65" height="64" viewBox="0 0 65 64" fill="none" xmlns="http://www.w3.org/2000/svg">
<path d="M32.3716 42C41.2081 42 48.3716 34.8366 48.3716 26C48.3716 17.1634 41.2081 10 32.3716 10C23.535 10 16.3716 17.1634 16.3716 26C16.3716 34.8366 23.535 42 32.3716 42Z" fill="white"/>
<path d="M44.3353 41.5055L44.3091 41.5315C41.8992 43.9088 39.4176 46.3568 37.774 49.4008L33.8884 56.5971C33.2385 57.8009 31.5047 57.8009 30.8547 56.5971L26.9691 49.4008C25.3255 46.3568 22.844 43.9088 20.4341 41.5315L20.4078 41.5056L20.0567 41.8615L20.4078 41.5055C19.6972 40.8045 18.9925 40.1093 18.3101 39.4016C14.9414 35.9078 12.8716 31.1631 12.8716 25.9358C12.8716 15.2033 21.6005 6.5 32.3716 6.5C43.1427 6.5 51.8716 15.2033 51.8716 25.9358C51.8716 31.1631 49.8018 35.9078 46.433 39.4016C45.7506 40.1093 45.046 40.8045 44.3353 41.5055ZM32.3716 39.5643C39.9202 39.5643 46.0423 33.4642 46.0423 25.9358C46.0423 18.4075 39.9202 12.3074 32.3716 12.3074C24.823 12.3074 18.7009 18.4075 18.7009 25.9358C18.7009 33.4642 24.823 39.5643 32.3716 39.5643Z" fill="#FF833D" stroke="#A44008"/>
</svg>
