<svg width="295" height="295" viewBox="0 0 295 295" fill="none" xmlns="http://www.w3.org/2000/svg">
<path d="M23.3636 113.091V20H48.6364V56.3636H82.0909V20H107.364V113.091H82.0909V76.7273H48.6364V113.091H23.3636Z" fill="black"/>
<path d="M139.182 114.182C134.727 114.182 130.788 113.455 127.364 112C123.97 110.515 121.303 108.273 119.364 105.273C117.424 102.273 116.455 98.4546 116.455 93.8182C116.455 90 117.106 86.7424 118.409 84.0455C119.712 81.3182 121.53 79.0909 123.864 77.3636C126.197 75.6364 128.909 74.3182 132 73.4091C135.121 72.5 138.485 71.9091 142.091 71.6364C146 71.3333 149.136 70.9697 151.5 70.5455C153.894 70.0909 155.621 69.4697 156.682 68.6818C157.742 67.8636 158.273 66.7879 158.273 65.4546V65.2727C158.273 63.4545 157.576 62.0606 156.182 61.0909C154.788 60.1212 153 59.6364 150.818 59.6364C148.424 59.6364 146.47 60.1667 144.955 61.2273C143.47 62.2576 142.576 63.8485 142.273 66H119.182C119.485 61.7576 120.833 57.8485 123.227 54.2727C125.652 50.6667 129.182 47.7879 133.818 45.6364C138.455 43.4545 144.242 42.3636 151.182 42.3636C156.182 42.3636 160.667 42.9545 164.636 44.1364C168.606 45.2879 171.985 46.9091 174.773 49C177.561 51.0606 179.682 53.4849 181.136 56.2727C182.621 59.0303 183.364 62.0303 183.364 65.2727V113.091H159.909V103.273H159.364C157.97 105.879 156.273 107.985 154.273 109.591C152.303 111.197 150.045 112.364 147.5 113.091C144.985 113.818 142.212 114.182 139.182 114.182ZM147.364 98.3636C149.273 98.3636 151.061 97.9697 152.727 97.1818C154.424 96.3939 155.803 95.2576 156.864 93.7727C157.924 92.2879 158.455 90.4849 158.455 88.3636V82.5455C157.788 82.8182 157.076 83.0758 156.318 83.3182C155.591 83.5606 154.803 83.7879 153.955 84C153.136 84.2121 152.258 84.4091 151.318 84.5909C150.409 84.7727 149.455 84.9394 148.455 85.0909C146.515 85.3939 144.924 85.8939 143.682 86.5909C142.47 87.2576 141.561 88.0909 140.955 89.0909C140.379 90.0606 140.091 91.1515 140.091 92.3636C140.091 94.303 140.773 95.7879 142.136 96.8182C143.5 97.8485 145.242 98.3636 147.364 98.3636Z" fill="black"/>
<path d="M195.352 139.273V43.2727H220.261V55.4546H220.807C221.716 53.0909 223.049 50.9242 224.807 48.9545C226.564 46.9545 228.746 45.3636 231.352 44.1818C233.958 42.9697 236.989 42.3636 240.443 42.3636C245.049 42.3636 249.428 43.5909 253.58 46.0455C257.761 48.5 261.155 52.3636 263.761 57.6364C266.398 62.9091 267.716 69.7576 267.716 78.1818C267.716 86.2424 266.458 92.9242 263.943 98.2273C261.458 103.53 258.125 107.485 253.943 110.091C249.792 112.697 245.231 114 240.261 114C236.989 114 234.064 113.47 231.489 112.409C228.943 111.318 226.761 109.848 224.943 108C223.155 106.121 221.777 104 220.807 101.636H220.443V139.273H195.352ZM219.898 78.1818C219.898 81.5758 220.337 84.5152 221.216 87C222.125 89.4545 223.398 91.3636 225.034 92.7273C226.701 94.0606 228.686 94.7273 230.989 94.7273C233.292 94.7273 235.246 94.0758 236.852 92.7727C238.489 91.4394 239.731 89.5455 240.58 87.0909C241.458 84.6061 241.898 81.6364 241.898 78.1818C241.898 74.7273 241.458 71.7727 240.58 69.3182C239.731 66.8333 238.489 64.9394 236.852 63.6364C235.246 62.303 233.292 61.6364 230.989 61.6364C228.686 61.6364 226.701 62.303 225.034 63.6364C223.398 64.9394 222.125 66.8333 221.216 69.3182C220.337 71.7727 219.898 74.7273 219.898 78.1818Z" fill="black"/>
<path d="M73.5455 209.091C73.303 206.061 72.1667 203.697 70.1364 202C68.1364 200.303 65.0909 199.455 61 199.455C58.3939 199.455 56.2576 199.773 54.5909 200.409C52.9545 201.015 51.7424 201.849 50.9546 202.909C50.1667 203.97 49.7576 205.182 49.7273 206.545C49.6667 207.667 49.8636 208.682 50.3182 209.591C50.803 210.47 51.5606 211.273 52.5909 212C53.6212 212.697 54.9394 213.333 56.5455 213.909C58.1515 214.485 60.0606 215 62.2727 215.455L69.9091 217.091C75.0606 218.182 79.4697 219.621 83.1364 221.409C86.803 223.197 89.803 225.303 92.1364 227.727C94.4697 230.121 96.1818 232.818 97.2727 235.818C98.3939 238.818 98.9697 242.091 99 245.636C98.9697 251.758 97.4394 256.939 94.4091 261.182C91.3788 265.424 87.0455 268.652 81.4091 270.864C75.803 273.076 69.0606 274.182 61.1818 274.182C53.0909 274.182 46.0303 272.985 40 270.591C34 268.197 29.3333 264.515 26 259.545C22.697 254.545 21.0303 248.152 21 240.364H45C45.1515 243.212 45.8636 245.606 47.1364 247.545C48.4091 249.485 50.197 250.955 52.5 251.955C54.8333 252.955 57.6061 253.455 60.8182 253.455C63.5152 253.455 65.7727 253.121 67.5909 252.455C69.4091 251.788 70.7879 250.864 71.7273 249.682C72.6667 248.5 73.1515 247.152 73.1818 245.636C73.1515 244.212 72.6818 242.97 71.7727 241.909C70.8939 240.818 69.4394 239.848 67.4091 239C65.3788 238.121 62.6364 237.303 59.1818 236.545L49.9091 234.545C41.6667 232.758 35.1667 229.773 30.4091 225.591C25.6818 221.379 23.3333 215.636 23.3636 208.364C23.3333 202.455 24.9091 197.288 28.0909 192.864C31.303 188.409 35.7424 184.939 41.4091 182.455C47.1061 179.97 53.6364 178.727 61 178.727C68.5152 178.727 75.0152 179.985 80.5 182.5C85.9849 185.015 90.2121 188.561 93.1818 193.136C96.1818 197.682 97.697 203 97.7273 209.091H73.5455Z" fill="black"/>
<path d="M106.068 200.364V180H186.977V200.364H158.977V273.091H134.068V200.364H106.068Z" fill="black"/>
<path d="M196.489 273.091V180H236.67C243.58 180 249.625 181.258 254.807 183.773C259.989 186.288 264.019 189.909 266.898 194.636C269.777 199.364 271.216 205.03 271.216 211.636C271.216 218.303 269.731 223.924 266.761 228.5C263.822 233.076 259.686 236.53 254.352 238.864C249.049 241.197 242.852 242.364 235.761 242.364H211.761V222.727H230.67C233.64 222.727 236.17 222.364 238.261 221.636C240.383 220.879 242.004 219.682 243.125 218.045C244.277 216.409 244.852 214.273 244.852 211.636C244.852 208.97 244.277 206.803 243.125 205.136C242.004 203.439 240.383 202.197 238.261 201.409C236.17 200.591 233.64 200.182 230.67 200.182H221.761V273.091H196.489ZM251.034 230.364L274.307 273.091H246.852L224.125 230.364H251.034Z" fill="black"/>
</svg>
